<svg width="240" height="240" viewBox="0 0 240 240" fill="none" xmlns="http://www.w3.org/2000/svg">
  <defs>
    <clipPath id="spot-dot-grid-circle">
      <circle cx="120" cy="120" r="108" />
    </clipPath>
  </defs>
  <rect width="240" height="240" fill="#F7F8FA"/>
  <g clip-path="url(#spot-dot-grid-circle)" fill="#666362">
    <circle cx="24" cy="24" r="3"/><circle cx="48" cy="24" r="3"/><circle cx="72" cy="24" r="3"/><circle cx="96" cy="24" r="3"/><circle cx="120" cy="24" r="3"/><circle cx="144" cy="24" r="3"/><circle cx="168" cy="24" r="3"/><circle cx="192" cy="24" r="3"/><circle cx="216" cy="24" r="3"/>
    <circle cx="24" cy="48" r="3"/><circle cx="48" cy="48" r="3"/><circle cx="72" cy="48" r="3"/><circle cx="96" cy="48" r="3"/><circle cx="120" cy="48" r="3"/><circle cx="144" cy="48" r="3"/><circle cx="168" cy="48" r="3"/><circle cx="192" cy="48" r="3"/><circle cx="216" cy="48" r="3"/>
    <circle cx="24" cy="72" r="3"/><circle cx="48" cy="72" r="3"/><circle cx="72" cy="72" r="3"/><circle cx="96" cy="72" r="3"/><circle cx="120" cy="72" r="3"/><circle cx="144" cy="72" r="3"/><circle cx="168" cy="72" r="3"/><circle cx="192" cy="72" r="3"/><circle cx="216" cy="72" r="3"/>
    <circle cx="24" cy="96" r="3"/><circle cx="48" cy="96" r="3"/><circle cx="72" cy="96" r="3"/><circle cx="96" cy="96" r="3"/><circle cx="120" cy="96" r="3"/><circle cx="144" cy="96" r="3"/><circle cx="168" cy="96" r="3"/><circle cx="192" cy="96" r="3"/><circle cx="216" cy="96" r="3"/>
    <circle cx="24" cy="120" r="3"/><circle cx="48" cy="120" r="3"/><circle cx="72" cy="120" r="3"/><circle cx="96" cy="120" r="3"/><circle cx="120" cy="120" r="3"/><circle cx="144" cy="120" r="3"/><circle cx="168" cy="120" r="3"/><circle cx="192" cy="120" r="3"/><circle cx="216" cy="120" r="3"/>
    <circle cx="24" cy="144" r="3"/><circle cx="48" cy="144" r="3"/><circle cx="72" cy="144" r="3"/><circle cx="96" cy="144" r="3"/><circle cx="120" cy="144" r="3"/><circle cx="144" cy="144" r="3"/><circle cx="168" cy="144" r="3"/><circle cx="192" cy="144" r="3"/><circle cx="216" cy="144" r="3"/>
    <circle cx="24" cy="168" r="3"/><circle cx="48" cy="168" r="3"/><circle cx="72" cy="168" r="3"/><circle cx="96" cy="168" r="3"/><circle cx="120" cy="168" r="3"/><circle cx="144" cy="168" r="3"/><circle cx="168" cy="168" r="3"/><circle cx="192" cy="168" r="3"/><circle cx="216" cy="168" r="3"/>
    <circle cx="24" cy="192" r="3"/><circle cx="48" cy="192" r="3"/><circle cx="72" cy="192" r="3"/><circle cx="96" cy="192" r="3"/><circle cx="120" cy="192" r="3"/><circle cx="144" cy="192" r="3"/><circle cx="168" cy="192" r="3"/><circle cx="192" cy="192" r="3"/><circle cx="216" cy="192" r="3"/>
    <circle cx="24" cy="216" r="3"/><circle cx="48" cy="216" r="3"/><circle cx="72" cy="216" r="3"/><circle cx="96" cy="216" r="3"/><circle cx="120" cy="216" r="3"/><circle cx="144" cy="216" r="3"/><circle cx="168" cy="216" r="3"/><circle cx="192" cy="216" r="3"/><circle cx="216" cy="216" r="3"/>
  </g>
</svg>
