<svg xmlns="http://www.w3.org/2000/svg" width="480" height="480" viewBox="0 0 480 480" fill="none">
  <rect width="480" height="480" fill="#F4EFE7"/>
  <g opacity="0.22" fill="#B24F1D">
    <circle cx="42" cy="46" r="1.4"/>
    <circle cx="78" cy="112" r="1.1"/>
    <circle cx="123" cy="37" r="0.9"/>
    <circle cx="188" cy="68" r="1.3"/>
    <circle cx="226" cy="22" r="0.8"/>
    <circle cx="274" cy="89" r="1.2"/>
    <circle cx="316" cy="41" r="1"/>
    <circle cx="367" cy="78" r="1.4"/>
    <circle cx="429" cy="36" r="0.9"/>
    <circle cx="460" cy="124" r="1.3"/>
    <circle cx="25" cy="178" r="1.1"/>
    <circle cx="83" cy="214" r="0.9"/>
    <circle cx="144" cy="167" r="1.2"/>
    <circle cx="199" cy="235" r="1.4"/>
    <circle cx="256" cy="188" r="1"/>
    <circle cx="312" cy="228" r="0.8"/>
    <circle cx="375" cy="176" r="1.2"/>
    <circle cx="441" cy="208" r="1.4"/>
    <circle cx="41" cy="291" r="1"/>
    <circle cx="98" cy="325" r="1.3"/>
    <circle cx="152" cy="274" r="0.8"/>
    <circle cx="205" cy="346" r="1.1"/>
    <circle cx="262" cy="302" r="1.4"/>
    <circle cx="318" cy="347" r="0.9"/>
    <circle cx="386" cy="292" r="1.2"/>
    <circle cx="444" cy="322" r="1"/>
    <circle cx="34" cy="412" r="1.2"/>
    <circle cx="90" cy="437" r="0.8"/>
    <circle cx="164" cy="390" r="1.1"/>
    <circle cx="228" cy="435" r="1.4"/>
    <circle cx="286" cy="388" r="1"/>
    <circle cx="339" cy="429" r="0.9"/>
    <circle cx="407" cy="398" r="1.3"/>
    <circle cx="457" cy="447" r="1.1"/>
  </g>
</svg>
